PathFileType	4	(X/Y/Z)	TVC_26_BWA4_walk_RCNL2025.trc
DataRate	CameraRate	NumFrames	NumMarkers	Units	OrigDataRate	OrigDataStartFrame	OrigNumFrames
100	100	4	27	mm	100	260	415
Frame#	Time	R_Shoulder			L_Shoulder			C7			J_Notch			R_Elbow			L_Elbow			R_Wrist			L_Wrist			R_Asis			L_Asis			R_Psis			L_Psis			Sacral			Thoracic			Sternum			R_Thigh_Lateral			R_Knee_Lateral			R_Shank_Lateral			R_Ankle_Lateral			R_Heel			R_Toe			L_Thigh_Lateral			L_Knee_Lateral			L_Shank_Lateral			L_Ankle_Lateral			L_Heel			L_Toe		
		X1	Y1	Z1	X2	Y2	Z2	X3	Y3	Z3	X4	Y4	Z4	X5	Y5	Z5	X6	Y6	Z6	X7	Y7	Z7	X8	Y8	Z8	X9	Y9	Z9	X10	Y10	Z10	X11	Y11	Z11	X12	Y12	Z12	X13	Y13	Z13	X14	Y14	Z14	X15	Y15	Z15	X16	Y16	Z16	X17	Y17	Z17	X18	Y18	Z18	X19	Y19	Z19	X20	Y20	Z20	X21	Y21	Z21	X22	Y22	Z22	X23	Y23	Z23	X24	Y24	Z24	X25	Y25	Z25	X26	Y26	Z26	X27	Y27	Z27
260	2.59000000	614.762024	1349.500244	-308.213898	561.659607	1350.694702	-624.293579	513.826294	1384.170898	-447.823944	666.160583	1298.639893	-467.956146	704.942261	1017.965210	-204.797485	520.967712	1021.421021	-721.410095	859.519196	868.692352	-223.436943	670.270966	852.036438	-688.514313	712.734863	945.344482	-298.217560	694.039673	946.001831	-585.455017	495.774475	932.658447	-356.120453	487.698822	927.240540	-502.407684	491.736649	929.949493	-429.264069	472.017944	1101.737427	-438.614227	734.042847	1065.015503	-476.975189	638.746155	555.084961	-245.234329	609.441284	432.642029	-300.227203	518.475464	274.495056	-241.734421	428.149841	86.686203	-288.779022	377.967377	77.069710	-336.425018	556.815063	40.912231	-304.466766	760.904419	600.686157	-652.089600	787.272888	482.067535	-590.454773	792.566772	270.094360	-636.042542	783.755249	69.370750	-570.473145	744.362854	49.904495	-510.952667	920.239258	45.729092	-575.180237
261	2.60000000	620.571472	1349.122559	-311.447479	566.972107	1350.425171	-627.485413	519.347229	1383.717773	-450.917908	671.798767	1298.492065	-471.302094	710.484192	1017.356506	-208.304886	527.074768	1021.024597	-724.473755	864.638153	867.631805	-226.858948	676.077057	851.423065	-692.015320	719.684937	944.971375	-302.153717	699.995361	946.245605	-589.489319	502.473511	932.162292	-359.372070	494.124512	926.822571	-505.679993	498.299011	929.492432	-432.526031	478.182648	1101.200317	-441.829956	740.256958	1065.106934	-480.699310	646.500916	554.854797	-248.064453	618.220276	432.010742	-302.286926	523.666016	276.097565	-243.493393	429.893768	90.082268	-289.537170	379.740753	81.506958	-337.471222	557.092590	40.705727	-304.703522	768.469482	601.613586	-655.396912	795.276917	482.096558	-592.884949	800.469299	268.924225	-637.126099	785.188049	69.296547	-570.816895	744.977417	50.473495	-511.474091	921.625549	44.324409	-574.774780
262	2.61000000	626.381042	1348.908569	-314.711121	572.294373	1350.326538	-630.696716	524.875610	1383.424072	-454.038513	677.428711	1298.481567	-474.670898	715.869446	1016.880005	-211.767609	533.155090	1020.823730	-727.576660	869.453979	866.548676	-230.116264	681.877808	851.044983	-695.527313	726.510315	944.828308	-306.159912	705.723572	946.693909	-593.648315	509.043304	931.878296	-362.649109	500.429291	926.585999	-508.970093	504.736298	929.232147	-435.809601	484.288666	1100.838379	-445.065430	746.373047	1065.358887	-484.466156	653.573425	555.292053	-250.614258	627.308228	431.624298	-304.098022	529.244202	278.060364	-245.041351	432.042633	93.980545	-290.257660	381.913147	86.585251	-338.453033	557.382446	40.488312	-304.949066	776.281189	602.292480	-658.690552	802.749573	481.910767	-595.334229	807.333862	267.471222	-638.166260	786.436707	69.266762	-571.142456	745.562561	51.027172	-511.903870	922.794434	43.326275	-574.459412
263	2.62000000	632.179443	1348.851074	-317.999939	577.624756	1350.395630	-633.923157	530.406494	1383.284546	-457.182617	683.046326	1298.603760	-478.057037	721.103638	1016.534729	-215.182755	539.193970	1020.819031	-730.723389	873.976929	865.449432	-233.204163	687.672241	850.910614	-699.047119	733.196960	944.915710	-310.228851	711.243530	947.327271	-597.912354	515.476135	931.792175	-365.956360	506.619263	926.523071	-512.285889	511.047699	929.157623	-439.121124	490.330383	1100.645142	-448.321655	752.386108	1065.763306	-488.272766	660.056763	556.318298	-252.939941	636.787964	431.460205	-305.657532	535.348328	280.355988	-246.360260	434.656525	98.380165	-290.938171	384.553223	92.304298	-339.361359	557.703186	40.279118	-305.195923	784.138611	602.642944	-661.917664	809.415527	481.486969	-597.820984	812.800476	265.874817	-639.206116	787.467651	69.235008	-571.425598	746.087891	51.520447	-512.239441	923.733093	42.652580	-574.244202
